<svg width="302" height="18" viewBox="0 0 302 18" fill="none" xmlns="http://www.w3.org/2000/svg">
<mask id="mask0_1_17" style="mask-type:alpha" maskUnits="userSpaceOnUse" x="0" y="0" width="302" height="18">
<rect width="302" height="18" fill="white"/>
</mask>
<g mask="url(#mask0_1_17)">
<path d="M-29.8557 0.298089C-37.6489 2.39045 -43 9.08595 -43 9.08595V170.798H332V0.298089C332 0.298089 325.25 9.08595 316.923 9.08595C308.596 9.08595 310.172 0.298089 301.845 0.298089C293.518 0.298089 295.095 9.08595 286.768 9.08595C278.441 9.08595 280.018 0.298089 271.691 0.298089C263.364 0.298089 265.327 9.08595 257 9.08595C248.673 9.08595 249.863 0.298089 241.536 0.298089C233.209 0.298089 234.786 9.08595 226.459 9.08595C218.132 9.08595 219.708 0.298089 211.381 0.298089C203.054 0.298089 204.631 9.08595 196.304 9.08595C187.977 9.08595 189.554 0.298089 181.227 0.298089C172.9 0.298089 174.476 9.08595 166.149 9.08595C157.822 9.08595 159.399 0.298089 151.072 0.298089C142.745 0.298089 144.322 9.08595 135.995 9.08595C127.668 9.08595 129.245 0.298089 120.918 0.298089C112.591 0.298089 114.167 9.08595 105.84 9.08595C97.513 9.08595 99.09 0.298089 90.763 0.298089C82.436 0.298089 84.013 9.08595 75.686 9.08595C67.359 9.08595 68.935 0.298089 60.608 0.298089C52.2813 0.298089 53.8579 9.08595 45.5309 9.08595C37.204 9.08595 38.7806 0.298089 30.4536 0.298089C22.1266 0.298089 23.7033 9.08595 15.3763 9.08595C7.0493 9.08595 8.6259 0.298089 0.299 0.298089C-8.028 0.298089 -6.4514 9.08595 -14.7784 9.08595C-23.1053 9.08595 -21.5482 -1.93236 -29.8557 0.298089Z" fill="#CBE4DE" stroke="#2FB5CE"/>
</g>
</svg>
